<svg width="34" height="34" viewBox="0 0 34 34" fill="none" xmlns="http://www.w3.org/2000/svg">
<path d="M29.9993 10.9862C29.6469 10.238 29.0798 9.61172 28.3701 9.18704L19.2043 3.52037C18.532 3.10385 17.7568 2.88318 16.966 2.88318C16.1751 2.88318 15.3999 3.10385 14.7276 3.52037L5.53347 9.18704C4.83479 9.62507 4.28242 10.2613 3.94681 11.0145C3.60609 11.7685 3.49285 12.6055 3.62097 13.4229L5.98681 27.5895C6.156 28.5706 6.66421 29.4611 7.42279 30.1057C8.18137 30.7504 9.14217 31.1083 10.1376 31.117H23.7801C24.81 31.119 25.8096 30.7691 26.6135 30.1254C27.3689 29.4727 27.8704 28.575 28.0301 27.5895L30.396 13.3379C30.4992 12.532 30.3612 11.7136 29.9993 10.9862ZM21.4993 21.0162C21.4993 21.7376 21.2127 22.4294 20.7026 22.9395C20.1925 23.4496 19.5007 23.7362 18.7793 23.7362H14.9968C14.2754 23.7362 13.5836 23.4496 13.0735 22.9395C12.5634 22.4294 12.2768 21.7376 12.2768 21.0162V17.2337C12.2768 16.5123 12.5634 15.8205 13.0735 15.3104C13.5836 14.8003 14.2754 14.5137 14.9968 14.5137H18.7793C19.5007 14.5137 20.1925 14.8003 20.7026 15.3104C21.2127 15.8205 21.4993 16.5123 21.4993 17.2337V21.0162Z" fill="black"/>
</svg>
