<svg width="34" height="34" viewBox="0 0 34 34" fill="none" xmlns="http://www.w3.org/2000/svg">
<path fill-rule="evenodd" clip-rule="evenodd" d="M10.115 3.1875C7.39925 3.1875 5.08938 4.165 3.47013 5.9415C1.86575 7.701 1.0625 10.1108 1.0625 12.7776C1.0625 17.4101 3.42125 21.1013 6.4175 23.9721C9.401 26.8303 13.1537 29.0041 16.2605 30.6297C16.4875 30.7488 16.7399 30.8114 16.9963 30.8122C17.2527 30.8129 17.5054 30.7518 17.7331 30.634C20.842 29.0254 24.5926 26.8345 27.5782 23.9615C30.5745 21.0821 32.9375 17.3782 32.9375 12.7776C32.9375 10.1001 32.13 7.6925 30.5235 5.933C28.9 4.15863 26.5922 3.1875 23.885 3.1875C21.5985 3.1875 19.7073 4.03325 18.2686 5.63125C17.7769 6.185 17.3512 6.794 17 7.446C16.6488 6.794 16.2231 6.185 15.7314 5.63125C14.2927 4.03325 12.4015 3.1875 10.115 3.1875Z" fill="black"/>
</svg>
