<svg width="34" height="34" viewBox="0 0 34 34" fill="none" xmlns="http://www.w3.org/2000/svg">
<g clip-path="url(#clip0_29_21)">
<path d="M17 2.83331C20.3815 2.83331 23.6245 4.17661 26.0156 6.5677C28.4067 8.95879 29.75 12.2018 29.75 15.5833C29.75 19.9381 27.3757 23.5025 24.8738 26.0596C23.6239 27.3233 22.26 28.4691 20.7995 29.4822L20.196 29.8931L19.9127 30.0815L19.3786 30.4215L18.9026 30.7119L18.3132 31.0547C17.9132 31.2831 17.4606 31.4031 17 31.4031C16.5394 31.4031 16.0868 31.2831 15.6867 31.0547L15.0974 30.7119L14.3607 30.2586L14.0887 30.0815L13.5079 29.6947C11.9323 28.6287 10.4648 27.4112 9.12617 26.0596C6.62433 23.5011 4.25 19.9381 4.25 15.5833C4.25 12.2018 5.5933 8.95879 7.98439 6.5677C10.3755 4.17661 13.6185 2.83331 17 2.83331ZM17 11.3333C16.4419 11.3333 15.8892 11.4432 15.3736 11.6568C14.858 11.8704 14.3894 12.1835 13.9948 12.5781C13.6001 12.9728 13.2871 13.4413 13.0735 13.9569C12.8599 14.4725 12.75 15.0252 12.75 15.5833C12.75 16.1414 12.8599 16.6941 13.0735 17.2097C13.2871 17.7254 13.6001 18.1939 13.9948 18.5885C14.3894 18.9832 14.858 19.2962 15.3736 19.5098C15.8892 19.7234 16.4419 19.8333 17 19.8333C18.1272 19.8333 19.2082 19.3855 20.0052 18.5885C20.8022 17.7915 21.25 16.7105 21.25 15.5833C21.25 14.4561 20.8022 13.3751 20.0052 12.5781C19.2082 11.7811 18.1272 11.3333 17 11.3333Z" fill="black"/>
</g>
<defs>
<clipPath id="clip0_29_21">
<rect width="34" height="34" fill="white"/>
</clipPath>
</defs>
</svg>
