<svg width="34" height="34" viewBox="0 0 34 34" fill="none" xmlns="http://www.w3.org/2000/svg">
<path d="M29.1904 5.90755C28.5728 5.28539 27.8377 4.79217 27.0279 4.45655C26.218 4.12093 25.3496 3.94962 24.4729 3.95255H9.49875C8.62131 3.95255 7.75249 4.12561 6.94202 4.46182C6.13155 4.79803 5.39535 5.29079 4.77556 5.91189C4.15578 6.53299 3.66458 7.27023 3.33009 8.08141C2.9956 8.89259 2.82439 9.76178 2.82625 10.6392V19.9892C2.82439 20.8667 2.9956 21.7358 3.33009 22.547C3.66458 23.3582 4.15578 24.0955 4.77556 24.7166C5.39535 25.3377 6.13155 25.8304 6.94202 26.1666C7.75249 26.5028 8.62131 26.6759 9.49875 26.6759H12.7996L15.5621 29.4242C15.742 29.6268 15.9644 29.7855 16.2137 29.8917C16.4617 29.9937 16.7252 30.0476 16.9929 30.0476C17.2607 30.0447 17.5242 29.9909 17.7721 29.8917C18.0034 29.7821 18.2143 29.6335 18.3954 29.4526L21.2287 26.6192H24.5296C25.406 26.6206 26.274 26.4486 27.0836 26.113C27.8933 25.7775 28.6286 25.2851 29.2471 24.6642C29.8538 24.0391 30.3347 23.3033 30.6637 22.4967C30.9952 21.6821 31.1695 20.8109 31.1737 19.9326V10.5826C31.1674 9.71108 30.9889 8.84946 30.6485 8.04717C30.3081 7.24489 29.8126 6.51776 29.1904 5.90755ZM10.4337 17.4817C9.96863 17.4817 9.51396 17.3438 9.12723 17.0854C8.7405 16.827 8.43908 16.4597 8.26109 16.03C8.0831 15.6003 8.03653 15.1274 8.12727 14.6713C8.21801 14.2151 8.44198 13.7961 8.77087 13.4672C9.09975 13.1383 9.51878 12.9143 9.97496 12.8236C10.4311 12.7328 10.904 12.7794 11.3337 12.9574C11.7634 13.1354 12.1307 13.4368 12.3891 13.8235C12.6475 14.2103 12.7854 14.6649 12.7854 15.1301C12.7817 15.7526 12.5327 16.3486 12.0925 16.7888C11.6523 17.229 11.0563 17.478 10.4337 17.4817ZM16.9929 17.4817C16.6841 17.4817 16.3783 17.4209 16.093 17.3027C15.8077 17.1845 15.5484 17.0113 15.33 16.7929C15.1117 16.5746 14.9384 16.3153 14.8203 16.03C14.7021 15.7447 14.6412 15.4389 14.6412 15.1301C14.6412 14.8212 14.7021 14.5154 14.8203 14.2301C14.9384 13.9448 15.1117 13.6855 15.33 13.4672C15.5484 13.2488 15.8077 13.0756 16.093 12.9574C16.3783 12.8392 16.6841 12.7784 16.9929 12.7784C17.6166 12.7784 18.2148 13.0261 18.6558 13.4672C19.0968 13.9082 19.3446 14.5064 19.3446 15.1301C19.3446 15.7538 19.0968 16.3519 18.6558 16.7929C18.2148 17.234 17.6166 17.4817 16.9929 17.4817ZM23.5379 17.4817C23.0728 17.4817 22.6181 17.3438 22.2314 17.0854C21.8447 16.827 21.5432 16.4597 21.3653 16.03C21.1873 15.6003 21.1407 15.1274 21.2314 14.6713C21.3222 14.2151 21.5461 13.7961 21.875 13.4672C22.2039 13.1383 22.6229 12.9143 23.0791 12.8236C23.5353 12.7328 24.0081 12.7794 24.4379 12.9574C24.8676 13.1354 25.2348 13.4368 25.4933 13.8235C25.7517 14.2103 25.8896 14.6649 25.8896 15.1301C25.8859 15.7526 25.6369 16.3486 25.1967 16.7888C24.7565 17.229 24.1605 17.478 23.5379 17.4817Z" fill="black"/>
</svg>
