<svg width="34" height="34" viewBox="0 0 34 34" fill="none" xmlns="http://www.w3.org/2000/svg">
<path d="M17 3.40002C15.1965 3.40002 13.4669 4.11645 12.1916 5.3917C10.9164 6.66695 10.2 8.39655 10.2 10.2C10.2 12.0035 10.9164 13.7331 12.1916 15.0084C13.4669 16.2836 15.1965 17 17 17C18.8034 17 20.5331 16.2836 21.8083 15.0084C23.0835 13.7331 23.8 12.0035 23.8 10.2C23.8 8.39655 23.0835 6.66695 21.8083 5.3917C20.5331 4.11645 18.8034 3.40002 17 3.40002ZM8.51528 18.7C8.0675 18.698 7.62373 18.7845 7.20945 18.9544C6.79518 19.1244 6.41856 19.3745 6.10122 19.6904C5.78387 20.0064 5.53206 20.3819 5.36024 20.7954C5.18842 21.2089 5.09997 21.6522 5.09998 22.1C5.09998 24.9747 6.51608 27.1422 8.72948 28.5549C10.9089 29.9438 13.8465 30.6 17 30.6C20.1535 30.6 23.0911 29.9438 25.2705 28.5549C27.4839 27.1439 28.9 24.973 28.9 22.1C28.9 21.1983 28.5418 20.3335 27.9041 19.6959C27.2665 19.0582 26.4017 18.7 25.5 18.7H8.51528Z" fill="black"/>
</svg>
